# xmcd CD database file
#
# Track frame offsets:
#	150
#	19206
#	39899
#	55750
#	66972
#	84846
#	99331
#	116353
#	128926
#	145676
#	159209
#	172829
#	187719
#	200371
#	213338
#	226074
#
# Disc length: 3217 seconds
#
# Revision: 0
# Processed by: cddbd v1.5.2PL0 Copyright (c) Steve Scherf et al.
# Submitted via: CDex 1.70beta2
#
DISCID=ba0c8f10
DTITLE=Various Artist - Country Heat Tailgate Party
DYEAR=2012
DGENRE=Country
TTITLE0=Old Alabama - Brad Paisley feat. Alabama
TTITLE1=Life is a Highway - Rascal Flatts
TTITLE2=No Shoes, No Shirt, No Problems - K. Chesney
TTITLE3=Chattahoochie - Alan Jackson
TTITLE4=Cowboy Casanova - Carrie Underwood
TTITLE5=Drink in my Hand - Eric Church
TTITLE6=Country Girl (Shake it for Me) - Luke Bryan
TTITLE7=Save Water, Drink Beer - Chris Young
TTITLE8=Redneck Woman - Gretchen Wilson
TTITLE9=Pretty Good At Drinkin' Beer - Billy Currington
TTITLE10=Craig Morgan - Bonfire
TTITLE11=Boot Scootin' Boogie - Brooks and Dunn
TTITLE12=Summer's Comin' - Clint Black
TTITLE13=Drinkin' Buddy - Gord Bamford
TTITLE14=One More Drinkin' Song - Jerrod Niemann
TTITLE15=Knee Deep - Zac Brown Band feat. J. Buffet
EXTD=YEAR: 2012
EXTT0=
EXTT1=
EXTT2=
EXTT3=
EXTT4=
EXTT5=
EXTT6=
EXTT7=
EXTT8=
EXTT9=
EXTT10=
EXTT11=
EXTT12=
EXTT13=
EXTT14=
EXTT15=
PLAYORDER=
